<?xml version="1.0" standalone="no"?>
<!DOCTYPE svg PUBLIC "-//W3C//DTD SVG 20010904//EN"
 "http://www.w3.org/TR/2001/REC-SVG-20010904/DTD/svg10.dtd">
<svg version="1.0" xmlns="http://www.w3.org/2000/svg"
 width="508.000000pt" height="401.000000pt" viewBox="0 0 508.000000 401.000000"
 preserveAspectRatio="xMidYMid meet">

<g transform="translate(0.000000,401.000000) scale(0.100000,-0.100000)"
fill="#000000" stroke="none">
<path d="M86 3987 c-22 -12 -49 -38 -60 -57 -21 -35 -21 -36 -21 -1925 0
-1879 0 -1890 20 -1925 12 -21 39 -44 65 -57 43 -23 50 -23 413 -23 l369 0 -3
739 c-2 407 -1 742 3 746 4 4 98 -87 210 -201 112 -115 272 -279 355 -364
l153 -155 0 -382 0 -383 693 0 693 0 629 629 c346 347 632 628 637 625 4 -3 8
-286 8 -630 l0 -624 348 0 c341 0 349 0 392 22 26 14 53 37 65 58 20 35 20 49
23 1915 l2 1880 -22 45 c-15 30 -37 53 -63 67 l-40 23 -555 0 -556 0 -629
-630 c-347 -347 -631 -635 -633 -640 -2 -6 -11 -10 -19 -10 -13 0 -607 594
-1122 1123 l-154 157 -581 0 -581 0 -39 -23z m1126 -814 c183 -186 622 -628
976 -983 l642 -645 118 120 c515 527 1285 1295 1292 1290 5 -3 9 -209 10 -476
l1 -470 -63 -66 c-123 -130 -239 -246 -862 -871 l-631 -632 -300 302 c-165
167 -388 393 -495 503 -107 111 -377 386 -599 613 -222 227 -410 420 -416 429
-19 28 -28 1223 -9 1223 2 0 153 -152 336 -337z"/>
</g>
</svg>
